<svg width="40" height="41" viewBox="0 0 40 41" fill="none" xmlns="http://www.w3.org/2000/svg">
<circle cx="20" cy="20.7458" r="19.25" stroke="white" stroke-width="1.5"/>
<g clip-path="url(#clip0_47_330)">
<path d="M25.9768 17.1208L25.5251 19.4008C25.3775 20.1516 24.6676 20.7396 23.909 20.7396H22.38V31.2456C22.38 32.0736 21.7593 32.7456 20.9402 32.7456H18.7123C17.8932 32.7456 17.2268 32.0721 17.2268 31.2448V20.7396H16.4844C15.6653 20.7396 14.9989 20.0668 14.9989 19.2388V16.9881C14.9989 16.1608 15.6653 15.4873 16.4844 15.4873H17.2268V13.2478C17.2268 10.7826 19.2016 8.77634 21.6376 8.75534C21.6531 8.75459 21.6664 8.74634 21.6826 8.74634H24.6536C25.0632 8.74634 25.3318 9.08159 25.3318 9.49559V13.2456C25.3318 13.6603 25.0632 13.9986 24.6536 13.9986H22.425L22.4242 15.4873H24.6521C25.0698 15.4873 25.455 15.6666 25.7074 15.9786C25.9605 16.2898 26.0587 16.7068 25.9768 17.1208ZM21.7099 16.9881C21.6996 16.9888 21.6914 16.9941 21.6811 16.9941C21.2708 16.9933 20.938 16.6573 20.9387 16.2433V16.2381L20.9402 13.2478C20.9402 12.8331 21.2723 12.4978 21.6826 12.4978H23.9105V10.2471H21.7114C21.6988 10.2471 21.6885 10.2538 21.6752 10.2538C20.0414 10.2538 18.7123 11.5971 18.7123 13.2478V16.2493C18.7123 16.6641 18.3795 17.0001 17.9692 17.0001C17.9493 17.0001 17.9323 16.9896 17.9124 16.9881H16.4844V19.2388H17.9692C18.3795 19.2388 18.7123 19.5748 18.7123 19.9896C18.7123 20.0286 18.6961 20.0616 18.6902 20.0991V31.2456L20.9402 31.2448V19.9971C20.9402 19.9941 20.9387 19.9918 20.9387 19.9896C20.9387 19.5748 21.2708 19.2388 21.6811 19.2388H23.909C23.9629 19.2388 24.0588 19.1601 24.0684 19.1076L24.4883 16.9881H21.7099Z" fill="white"/>
</g>
<defs>
<clipPath id="clip0_47_330">
<rect width="11" height="24" fill="white" transform="translate(15 8.74585)"/>
</clipPath>
</defs>
</svg>
