<svg width="40" height="41" viewBox="0 0 40 41" fill="none" xmlns="http://www.w3.org/2000/svg">
<circle cx="20" cy="20.7458" r="19.25" stroke="white" stroke-width="1.5"/>
<g clip-path="url(#clip0_47_320)">
<path d="M20.0234 16.7032C17.748 16.7032 15.9127 18.5067 15.9127 20.7426C15.9127 22.9786 17.748 24.7821 20.0234 24.7821C22.2988 24.7821 24.1341 22.9786 24.1341 20.7426C24.1341 18.5067 22.2988 16.7032 20.0234 16.7032ZM20.0234 23.3688C18.553 23.3688 17.3509 22.1911 17.3509 20.7426C17.3509 19.2942 18.5494 18.1165 20.0234 18.1165C21.4974 18.1165 22.6959 19.2942 22.6959 20.7426C22.6959 22.1911 21.4938 23.3688 20.0234 23.3688ZM25.261 16.5379C25.261 17.0618 24.8317 17.4801 24.3022 17.4801C23.7692 17.4801 23.3434 17.0582 23.3434 16.5379C23.3434 16.0176 23.7727 15.5958 24.3022 15.5958C24.8317 15.5958 25.261 16.0176 25.261 16.5379ZM27.9836 17.4942C27.9228 16.2321 27.6294 15.1141 26.6885 14.193C25.7512 13.2719 24.6135 12.9836 23.3291 12.9204C22.0054 12.8465 18.0378 12.8465 16.7141 12.9204C15.4333 12.9801 14.2956 13.2684 13.3547 14.1895C12.4138 15.1106 12.124 16.2286 12.0596 17.4907C11.9845 18.7915 11.9845 22.6903 12.0596 23.9911C12.1205 25.2532 12.4138 26.3711 13.3547 27.2922C14.2956 28.2133 15.4298 28.5016 16.7141 28.5649C18.0378 28.6387 22.0054 28.6387 23.3291 28.5649C24.6135 28.5051 25.7512 28.2168 26.6885 27.2922C27.6258 26.3711 27.9192 25.2532 27.9836 23.9911C28.0587 22.6903 28.0587 18.795 27.9836 17.4942ZM26.2735 25.3868C25.9944 26.0758 25.4542 26.6067 24.7494 26.8844C23.694 27.2957 21.1897 27.2008 20.0234 27.2008C18.8571 27.2008 16.3492 27.2922 15.2974 26.8844C14.5962 26.6102 14.0559 26.0793 13.7733 25.3868C13.3547 24.3497 13.4513 21.8887 13.4513 20.7426C13.4513 19.5965 13.3583 17.1321 13.7733 16.0985C14.0524 15.4094 14.5926 14.8786 15.2974 14.6008C16.3528 14.1895 18.8571 14.2844 20.0234 14.2844C21.1897 14.2844 23.6976 14.193 24.7494 14.6008C25.4506 14.875 25.9909 15.4059 26.2735 16.0985C26.6921 17.1356 26.5955 19.5965 26.5955 20.7426C26.5955 21.8887 26.6921 24.3532 26.2735 25.3868Z" fill="white"/>
</g>
<defs>
<clipPath id="clip0_47_320">
<rect width="16.0277" height="18" fill="white" transform="translate(12.006 11.7461)"/>
</clipPath>
</defs>
</svg>
