<svg width="40" height="41" viewBox="0 0 40 41" fill="none" xmlns="http://www.w3.org/2000/svg">
<circle cx="20" cy="20.7458" r="19.25" stroke="white" stroke-width="1.5"/>
<path d="M24.8218 13.8802C24.0887 13.0398 23.648 11.9439 23.648 10.7458H22.7294M24.8218 13.8802C25.4899 14.6465 26.3945 15.2037 27.4246 15.4219C27.7447 15.4916 28.0787 15.5288 28.4267 15.5288V18.9649C26.6451 18.9649 24.9933 18.3939 23.6478 17.428V24.4165C23.6478 27.9085 20.8083 30.7458 17.3239 30.7458C15.5005 30.7458 13.8534 29.9656 12.6981 28.7258C11.6449 27.5928 11 26.0789 11 24.4165C11 20.9756 13.756 18.1709 17.1708 18.0966M24.8218 13.8802C24.804 13.8686 24.7862 13.8569 24.7685 13.845M14.9856 26.0975C14.6422 25.6239 14.4381 25.0435 14.4381 24.4119C14.4381 22.8192 15.7326 21.5236 17.324 21.5236C17.6209 21.5236 17.9086 21.5746 18.1777 21.6582V18.1478C17.8993 18.1106 17.6163 18.0873 17.324 18.0873C17.2729 18.0873 16.8618 18.1147 16.8108 18.1147M22.7245 10.7458H20.2098L20.2052 24.5233C20.1495 26.065 18.8782 27.3049 17.3239 27.3049C16.3588 27.3049 15.5098 26.8266 14.9809 26.1022" stroke="white" stroke-linejoin="round"/>
</svg>
